<svg xmlns="http://www.w3.org/2000/svg" viewBox="0 0 46.69 49.86"><defs><style>.cls-1,.cls-2{fill:none;}.cls-1,.cls-2,.cls-4{stroke:#f6f6f6;}.cls-1{stroke-miterlimit:10;}.cls-2,.cls-4{stroke-linecap:round;stroke-linejoin:round;}.cls-3,.cls-4{fill:#f6f6f6;}</style></defs><title>ClinicalSkillsLogo3</title><g id="Layer_2" data-name="Layer 2"><g id="Layer_1-2" data-name="Layer 1"><path class="cls-1" d="M17.3,25.29C16,25.07,4.6,30.46,4.8,31.69L.63,48.77l45.5.59L44.47,33.77c-2.82-3.28-6.78-6.15-13.42-8.05a10.33,10.33,0,0,1-13.75-.43Z"/><path class="cls-2" d="M17.3,25.29S21,48.36,21.22,48.36h5.66l4-23.08a9.21,9.21,0,0,1-7.08,3.18A9.15,9.15,0,0,1,17.3,25.29Z"/><path class="cls-3" d="M25.21,32.4l1.12-4.1H21.68l1.22,4.1Z"/><polygon class="cls-3" points="22.71 32.55 22.3 44.24 25.71 44.24 25.36 32.55 22.71 32.55"/><rect class="cls-3" x="33.55" y="36.11" width="3.08" height="2.58" rx="1.29" ry="1.29"/><path class="cls-1" d="M35.09,36.46a19,19,0,0,0-3.71-10.32"/><path class="cls-1" d="M16.93,26.14s-1.8.6-4.07,6.41"/><path class="cls-1" d="M10.55,44.42a.59.59,0,0,1-.37-.23.56.56,0,0,1-.09-.46c0-2.88.09-5.76.13-8.64A5.36,5.36,0,0,1,11.09,34a3.5,3.5,0,0,1,1.11-.85,2.91,2.91,0,0,1,2.18,0,3.23,3.23,0,0,1,1.75,1.6c.4,2.58.8,5.15,1.19,7.73l-.35,1"/><circle class="cls-3" cx="16.77" cy="44.1" r="0.95"/><circle class="cls-3" cx="11.21" cy="44.62" r="0.95"/><path class="cls-2" d="M18.43,7.59a7.81,7.81,0,0,0,5.4,1.5A7.88,7.88,0,0,0,29.3,5.77l2.5,6.94,1.38.38a2.1,2.1,0,0,1,.31,1.09,2.14,2.14,0,0,1-.31,1.09l-1.44.78L26.33,23.9a4.83,4.83,0,0,1-2.12.72,4.76,4.76,0,0,1-2.69-.57L16,16.4l-1.06-.31a2.33,2.33,0,0,1-.13-3h.88a4.3,4.3,0,0,0,.62-2.1c0-1-.38-1.53,0-2.06l1-.75.75.75.63.94Z"/><path class="cls-4" d="M31.38,3.46a9.93,9.93,0,0,1,1-2.94C31.74.71,28.68,2,28.68,2,27.8,1.34,17.3-3.42,14,8.4l-.29,4h1.2l3.35-4.23A6.41,6.41,0,0,0,22,10.11c2.82.31,5.78-1.58,7.27-4.77L32.36,12,34,12C33.32,11.14,30.72,7.75,31.38,3.46Z"/></g></g></svg>