<?xml version="1.0" encoding="utf-8"?>
<!-- Generator: Adobe Illustrator 22.1.0, SVG Export Plug-In . SVG Version: 6.00 Build 0)  -->
<svg version="1.1" id="Layer_1" xmlns="http://www.w3.org/2000/svg" xmlns:xlink="http://www.w3.org/1999/xlink" x="0px" y="0px"
	 viewBox="0 0 195 179" style="enable-background:new 0 0 195 179;" xml:space="preserve">
<style type="text/css">
	.st0{fill:none;stroke:#FFFFFF;stroke-width:1.07;stroke-miterlimit:10;}
</style>
<title>interfaceIcons</title>
<path id="SVGID" class="st0" d="M108.9,46l-3.8-0.7c-8.9-1.4-18-0.8-27,0.5l-3.8,0.6c-8.6,8.2-7,23.6-1.6,33.8
	c0.8,2,3.9,1.6,5.7,1.9l4.1,0.5h0.2c-0.1,3.2-0.5,5.8-2.4,8.8c3.5-0.8,6.5-4.8,7.3-8.4c6.6,0.3,13.2,0,19.7-1l3.7-0.6
	c1.8-0.7,4.1-1.9,4.3-4.3c0,0,0.3-1.6,0.9-4C118.1,64.3,118.4,49,108.9,46z"/>
<path id="SVGID-2" class="st0" d="M88.1,27h44.4c2.5,0.1,4.4,2.2,4.3,4.7c0,0,0,0,0,0v31.2c0.1,2.5-1.8,4.6-4.3,4.7c0,0,0,0,0,0
	h-29.8c-0.1,3.2,0.9,6.3,2.9,8.8c-3.3,0.1-8-5.1-9.4-8.8h-8.1c-2.5-0.1-4.4-2.2-4.3-4.7c0,0,0,0,0,0V31.7
	C83.7,29.2,85.6,27.1,88.1,27C88.1,27,88.1,27,88.1,27z"/>
<path id="SVGID-3" class="st0" d="M181.2,15.8c-0.5-3.3-5.3-5.4-10.7-4.5s-9.4,4.2-8.8,7.5s2.2,3.6,4.9,4.3
	c-0.1,1.1,0.1,1.9-1.1,2.6c1.4,0.1,2.8-0.8,3.2-2.2c1.2,0.1,2.5,0.1,3.7-0.1C177.7,22.5,181.7,19.1,181.2,15.8z"/>
<path id="SVGID-4" class="st0" d="M158,96.6c-0.3-2.1-3.4-3.5-6.9-2.9s-6,2.7-5.7,4.9s1.4,2.3,3.2,2.8c0,0.7,0.1,1.2-0.7,1.7
	c0.9,0,1.7-0.5,2-1.4h2.4C155.8,100.9,158.4,98.8,158,96.6z"/>
<path id="SVGID-5" class="st0" d="M44.4,39.8c-0.5-3.3-5.3-5.4-10.7-4.5s-9.4,4.2-8.8,7.5s2.2,3.6,4.9,4.3c-0.1,1.1,0.1,1.9-1.1,2.6
	c1.4,0.1,2.8-0.8,3.2-2.2c1.2,0.1,2.5,0.1,3.7-0.1C40.9,46.5,44.9,43.1,44.4,39.8z"/>
</svg>
